<?xml version="1.0" standalone="no"?>
<!DOCTYPE svg PUBLIC "-//W3C//DTD SVG 20010904//EN"
 "http://www.w3.org/TR/2001/REC-SVG-20010904/DTD/svg10.dtd">
<svg version="1.0" xmlns="http://www.w3.org/2000/svg"
 width="185.000000pt" height="200.000000pt" viewBox="0 0 185.000000 200.000000"
 preserveAspectRatio="xMidYMid meet">

<g transform="translate(0.000000,200.000000) scale(0.100000,-0.100000)"
fill="#000000" stroke="none">
<path d="M706 1885 c-11 -8 -18 -16 -15 -18 10 -7 133 -57 135 -54 1 1 -13 21
-32 45 -38 44 -57 50 -88 27z"/>
<path d="M416 1851 c-3 -5 1 -14 9 -21 12 -10 15 -10 15 3 0 19 -16 31 -24 18z"/>
<path d="M973 1766 c20 -20 37 -40 37 -46 0 -14 -73 -31 -84 -20 -11 11 -95
12 -171 1 l-50 -7 34 -7 c117 -25 135 -41 86 -73 -22 -15 -29 -15 -51 -4 -20
11 -31 11 -59 1 -26 -9 -49 -10 -92 -2 -96 18 -102 11 -15 -19 64 -22 88 -27
105 -19 16 7 32 6 57 -5 l35 -14 -30 -13 c-16 -7 -61 -13 -98 -13 -53 -1 -71
-5 -81 -19 -9 -12 -37 -20 -91 -27 -43 -5 -80 -12 -82 -14 -4 -4 49 -12 147
-22 83 -8 105 -19 59 -29 -65 -13 -71 -16 -59 -30 8 -9 3 -15 -20 -25 -38 -16
-40 -35 -2 -25 46 13 107 23 111 20 2 -2 -7 -18 -19 -35 -14 -20 -28 -29 -37
-26 -53 21 -62 19 -80 -18 -9 -21 -26 -38 -38 -41 -11 -2 -47 -10 -80 -18
l-60 -15 64 -1 64 -1 -23 -25 c-29 -31 -22 -31 40 0 44 22 50 23 64 9 21 -20
21 -21 -11 -38 -28 -15 -28 -16 -5 -22 12 -3 22 -8 22 -10 0 -19 -33 -67 -70
-101 l-45 -42 65 26 c36 14 73 33 84 42 10 9 34 21 54 26 32 9 37 16 57 74 20
60 24 65 65 81 44 16 46 19 69 93 24 73 25 76 65 87 23 6 63 30 89 53 38 33
49 50 54 82 7 50 17 62 53 70 22 5 30 14 35 37 5 19 18 36 36 47 16 9 29 18
29 21 -1 4 -190 70 -254 88 -6 2 6 -13 27 -32z"/>
<path d="M270 1777 c5 -5 324 -127 334 -127 4 0 6 11 6 24 0 23 -8 26 -147 60
-82 20 -159 39 -173 43 -14 3 -23 3 -20 0z"/>
<path d="M1233 1686 c-45 -21 -53 -30 -63 -65 -9 -34 -16 -42 -42 -49 -27 -7
-34 -15 -43 -49 -5 -23 -21 -53 -34 -67 l-24 -26 175 0 c157 0 178 -2 199 -19
19 -15 23 -27 21 -65 l-2 -47 147 3 146 3 8 25 c4 14 21 86 38 160 17 74 36
151 41 171 6 20 10 39 10 43 0 3 -118 6 -262 6 -257 0 -264 -1 -315 -24z"/>
<path d="M260 1653 c1 -23 19 -34 46 -27 45 10 51 17 24 25 -35 10 -70 10 -70
2z"/>
<path d="M381 1549 c-74 -14 -70 -17 20 -18 69 -1 88 2 93 14 6 17 -38 19
-113 4z"/>
<path d="M91 1494 c-12 -14 -21 -28 -18 -31 3 -2 34 -7 69 -10 l63 -5 -40 36
c-22 19 -42 35 -45 35 -3 0 -16 -11 -29 -25z"/>
<path d="M311 1400 c-86 -26 -89 -34 -9 -26 79 8 95 12 102 32 7 18 -13 17
-93 -6z"/>
<path d="M892 1348 c-5 -7 -15 -33 -22 -58 -6 -25 -13 -53 -16 -62 -3 -9 -24
-24 -48 -33 -24 -9 -48 -27 -54 -38 -52 -115 -54 -117 -99 -128 -55 -15 -56
-37 -3 -79 78 -62 118 -70 338 -70 206 0 251 -6 287 -40 20 -19 24 -19 51 -5
64 33 220 45 277 20 28 -12 23 74 -9 140 -29 63 -68 99 -144 133 -51 23 -69
25 -275 31 -141 4 -228 11 -241 18 -33 19 -49 68 -37 112 6 20 14 44 18 54 8
20 -7 23 -23 5z"/>
<path d="M315 1301 c11 -5 40 -12 64 -16 34 -6 42 -4 39 6 -3 9 -24 15 -64 16
-39 2 -52 0 -39 -6z"/>
<path d="M98 1256 c-54 -13 -74 -27 -32 -22 16 2 55 4 88 5 51 1 57 3 46 16
-14 17 -35 17 -102 1z"/>
<path d="M170 1084 c-41 -18 -88 -38 -104 -44 -64 -22 -14 -17 99 11 155 38
150 36 135 54 -18 22 -46 17 -130 -21z"/>
<path d="M343 1017 c-56 -34 -102 -65 -103 -69 0 -12 194 81 207 98 15 20 17
34 6 34 -5 0 -54 -29 -110 -63z"/>
<path d="M395 897 l-40 -22 33 -3 c43 -4 58 2 72 27 9 18 8 21 -7 21 -10 -1
-36 -11 -58 -23z"/>
<path d="M271 886 c-8 -9 -11 -19 -7 -23 9 -9 29 13 24 27 -2 8 -8 7 -17 -4z"/>
<path d="M1462 788 c3 -49 5 -53 31 -56 27 -3 27 -2 27 52 0 56 0 56 -31 56
l-30 0 3 -52z"/>
<path d="M1377 823 c-14 -4 -17 -13 -15 -46 3 -39 5 -42 33 -42 29 0 30 2 33
48 3 49 -1 53 -51 40z"/>
<path d="M1550 767 c0 -40 5 -70 15 -83 8 -10 15 -28 15 -40 0 -22 38 -64 58
-64 29 0 35 136 8 191 -16 35 -50 59 -81 59 -12 0 -15 -15 -15 -63z"/>
<path d="M1282 784 c-19 -13 -22 -21 -16 -52 8 -46 7 -45 38 -31 22 10 26 18
26 56 0 47 -11 53 -48 27z"/>
<path d="M1198 729 c-21 -15 -28 -29 -28 -54 0 -43 11 -50 44 -24 20 16 26 29
26 60 0 44 -4 46 -42 18z"/>
<path d="M455 731 c-3 -6 -14 -50 -24 -98 -11 -48 -22 -101 -26 -118 l-7 -30
24 27 c49 56 151 88 286 88 58 0 77 10 51 26 -6 3 -9 28 -7 58 l3 51 -147 3
c-87 1 -149 -1 -153 -7z"/>
<path d="M1377 709 c-48 -11 -110 -42 -168 -85 -25 -18 -49 -31 -53 -27 -3 3
-6 24 -6 45 0 21 -2 38 -5 38 -3 0 -28 -17 -56 -37 -28 -20 -74 -44 -102 -53
-48 -16 -51 -19 -65 -66 -7 -27 -18 -53 -23 -59 -6 -5 -80 -15 -166 -21 -152
-10 -157 -11 -179 -38 -29 -33 -30 -65 -4 -94 28 -30 93 -29 201 2 46 13 87
22 91 20 5 -3 8 -25 8 -50 0 -49 -4 -48 89 -33 l67 11 13 42 c20 69 23 71 96
68 162 -8 345 74 415 185 46 72 37 123 -25 149 -38 16 -71 16 -128 3z m133
-29 c25 -14 33 -55 16 -88 -22 -43 -105 -115 -167 -145 -74 -37 -201 -62 -248
-51 -53 13 -53 42 0 105 55 66 149 137 218 165 59 25 148 32 181 14z m-614
-261 c3 -6 0 -18 -9 -26 -15 -15 -234 -83 -269 -83 -59 0 -79 56 -31 87 21 14
56 19 148 24 66 3 128 6 137 7 9 1 20 -3 24 -9z"/>
<path d="M1377 663 c-8 -13 -12 -172 -4 -179 3 -4 18 1 32 10 23 15 25 22 25
96 0 78 -1 80 -24 80 -14 0 -27 -3 -29 -7z"/>
<path d="M1467 663 c-11 -10 -8 -113 3 -113 11 0 35 36 44 66 9 31 -28 67 -47
47z"/>
<path d="M1301 633 c-19 -15 -23 -32 -28 -110 l-6 -93 30 11 c35 12 43 39 43
147 0 66 -5 72 -39 45z"/>
<path d="M1206 565 c-14 -13 -26 -34 -26 -47 0 -13 -3 -40 -6 -60 -6 -37 -6
-38 24 -38 35 0 38 6 48 99 7 78 2 85 -40 46z"/>
<path d="M1116 477 c-30 -40 -32 -52 -9 -61 23 -9 43 19 43 61 0 18 -2 33 -4
33 -3 0 -16 -15 -30 -33z"/>
<path d="M1559 563 c-5 -15 -7 -45 -3 -67 l7 -41 28 35 c36 42 36 63 4 84 -25
16 -26 16 -36 -11z"/>
<path d="M644 556 c-3 -8 -4 -31 -2 -52 3 -34 7 -39 29 -42 29 -3 39 15 39 76
0 29 -3 32 -30 32 -17 0 -33 -6 -36 -14z"/>
<path d="M746 554 c-10 -25 -7 -82 4 -89 22 -14 48 6 55 41 3 20 9 42 12 50 4
10 -4 14 -30 14 -23 0 -37 -6 -41 -16z"/>
<path d="M845 548 c-13 -57 -11 -73 12 -76 24 -3 32 9 47 71 6 25 4 27 -24 27
-23 0 -31 -5 -35 -22z"/>
<path d="M546 553 c-19 -5 -19 -29 3 -85 9 -23 14 -26 33 -19 19 7 23 17 26
60 3 48 2 51 -20 50 -13 -1 -31 -3 -42 -6z"/>
<path d="M452 502 c-48 -41 -84 -160 -44 -148 9 2 36 8 60 11 57 9 71 39 46
105 -9 25 -20 48 -23 52 -4 5 -21 -4 -39 -20z"/>
<path d="M1482 477 c-15 -16 -22 -36 -22 -65 0 -23 2 -42 5 -42 3 0 19 10 35
22 30 22 35 42 24 86 -8 28 -15 28 -42 -1z"/>
<path d="M1391 416 c-28 -16 -39 -38 -40 -79 -1 -25 2 -28 22 -22 35 11 50 31
54 75 4 43 0 46 -36 26z"/>
<path d="M1274 370 c-15 -6 -23 -20 -27 -47 -6 -47 0 -53 41 -41 30 8 32 11
32 53 0 47 -6 51 -46 35z"/>
<path d="M1064 352 c-6 -4 -14 -19 -17 -34 -4 -14 -10 -33 -13 -42 -5 -13 1
-16 29 -16 32 0 35 3 45 42 6 23 10 43 9 44 -10 8 -44 12 -53 6z"/>
<path d="M1142 311 c-16 -52 -17 -51 23 -51 37 0 39 3 49 58 5 31 4 32 -28 32
-30 0 -34 -4 -44 -39z"/>
<path d="M440 333 c-48 -8 -50 -10 -39 -43 6 -16 15 -30 19 -30 17 0 90 54 90
67 0 13 -19 15 -70 6z"/>
<path d="M790 307 c-20 -10 -26 -21 -28 -55 -3 -44 1 -48 40 -33 20 7 25 17
27 55 2 50 -1 52 -39 33z"/>
<path d="M485 263 c-22 -14 -42 -28 -44 -30 -7 -5 42 -53 54 -53 12 0 45 73
45 98 0 18 -11 15 -55 -15z"/>
<path d="M693 278 c-31 -8 -33 -11 -33 -53 0 -37 3 -45 18 -45 36 0 54 23 50
66 -3 40 -3 40 -35 32z"/>
<path d="M556 223 c-18 -53 -12 -66 30 -61 25 3 29 8 36 47 9 52 5 61 -27 61
-19 0 -26 -9 -39 -47z"/>
</g>
</svg>
