<?xml version="1.0" standalone="no"?>
<!DOCTYPE svg PUBLIC "-//W3C//DTD SVG 20010904//EN"
 "http://www.w3.org/TR/2001/REC-SVG-20010904/DTD/svg10.dtd">
<svg version="1.0" xmlns="http://www.w3.org/2000/svg"
 width="172.000000pt" height="213.000000pt" viewBox="0 0 172.000000 213.000000"
 preserveAspectRatio="xMidYMid meet">

<g transform="translate(0.000000,213.000000) scale(0.100000,-0.100000)"
fill="#000000" stroke="none">
<path d="M1584 2066 c-27 -24 -125 -109 -219 -190 l-170 -146 -45 7 c-25 5
-110 8 -190 8 -162 0 -228 -13 -336 -67 -204 -102 -296 -356 -199 -549 45 -88
156 -154 370 -219 174 -52 217 -81 217 -146 0 -30 -6 -43 -28 -61 -80 -64
-332 -30 -542 72 -40 19 -76 35 -81 35 -5 0 -18 -30 -31 -67 -21 -64 -134
-384 -214 -607 -20 -55 -36 -101 -36 -103 0 -9 32 16 101 78 207 186 341 299
349 294 52 -32 394 -47 500 -21 218 53 346 177 380 366 29 159 -41 292 -193
367 -34 17 -125 52 -202 78 -76 26 -148 51 -160 57 -92 47 -87 141 8 177 86
33 330 -5 461 -71 21 -11 42 -16 46 -11 7 7 24 52 130 358 21 61 61 175 89
254 28 79 50 146 48 147 -2 2 -25 -16 -53 -40z"/>
</g>
</svg>
